HIERARCHY
ROOT Hips
{
	OFFSET 62.148300 -23.092014 96.996902
	CHANNELS 6 Xposition Yposition Zposition Xrotation Yrotation Zrotation
	JOINT spine
	{
		OFFSET 0.000000 -0.458069 7.965675
		CHANNELS 3 Xrotation Yrotation Zrotation
		JOINT spine1
		{
			OFFSET 0.000000 -0.000002 10.243103
			CHANNELS 3 Xrotation Yrotation Zrotation
			JOINT spine2
			{
				OFFSET 0.000000 -0.000002 9.814751
				CHANNELS 3 Xrotation Yrotation Zrotation
				JOINT Neck
				{
					OFFSET 0.000000 -1.201384 25.198608
					CHANNELS 3 Xrotation Yrotation Zrotation
					JOINT Head
					{
						OFFSET 0.000000 0.000000 7.613144
						CHANNELS 3 Xrotation Yrotation Zrotation
						End Site
						{
							OFFSET 0.000000 6.077326 18.428101
						}
					}
				}
				JOINT RightShoulder
				{
					OFFSET -4.132698 0.575449 10.599213
					CHANNELS 3 Xrotation Yrotation Zrotation
					JOINT RightArm
					{
						OFFSET 0.000000 -0.000002 13.901794
						CHANNELS 3 Xrotation Yrotation Zrotation
						JOINT RightArmRoll
						{
							OFFSET 0.000000 0.000000 7.017883
							CHANNELS 3 Xrotation Yrotation Zrotation
							JOINT RightForeArm
							{
								OFFSET 0.000000 -0.000004 20.440598
								CHANNELS 3 Xrotation Yrotation Zrotation
								JOINT RightForeArmRoll
								{
									OFFSET 0.000000 -0.000002 7.875153
									CHANNELS 3 Xrotation Yrotation Zrotation
									JOINT RightHand
									{
										OFFSET 0.000000 -0.000002 15.803696
										CHANNELS 3 Xrotation Yrotation Zrotation
										End Site
										{
											OFFSET 0.000000 0.000000 0.100006
										}
									}
								}
							}
						}
					}
				}
				JOINT LeftShoulder
				{
					OFFSET 4.132698 0.575449 10.599213
					CHANNELS 3 Xrotation Yrotation Zrotation
					JOINT LeftArm
					{
						OFFSET 0.000000 -0.000002 13.901794
						CHANNELS 3 Xrotation Yrotation Zrotation
						JOINT LeftArmRoll
						{
							OFFSET 0.000000 0.000000 7.017883
							CHANNELS 3 Xrotation Yrotation Zrotation
							JOINT LeftForeArm
							{
								OFFSET 0.000000 -0.000004 20.440598
								CHANNELS 3 Xrotation Yrotation Zrotation
								JOINT LeftForeArmRoll
								{
									OFFSET 0.000000 -0.000002 7.875153
									CHANNELS 3 Xrotation Yrotation Zrotation
									JOINT LeftHand
									{
										OFFSET 0.000000 -0.000002 15.803696
										CHANNELS 3 Xrotation Yrotation Zrotation
										End Site
										{
											OFFSET 0.000000 0.000000 0.100006
										}
									}
								}
							}
						}
					}
				}
			}
		}
	}
	JOINT RightUpLeg
	{
		OFFSET -7.060478 1.086100 -1.294701
		CHANNELS 3 Xrotation Yrotation Zrotation
		JOINT RightUpLegRoll
		{
			OFFSET 0.000000 -0.000004 18.530800
			CHANNELS 3 Xrotation Yrotation Zrotation
			JOINT RightLeg
			{
				OFFSET 0.000000 0.000004 -22.947601
				CHANNELS 3 Xrotation Yrotation Zrotation
				JOINT RightLegRoll
				{
					OFFSET 0.000000 -0.000004 23.022598
					CHANNELS 3 Xrotation Yrotation Zrotation
					JOINT RightFoot
					{
						OFFSET 0.000000 -0.000002 19.162506
						CHANNELS 3 Xrotation Yrotation Zrotation
						JOINT RightToeBase
						{
							OFFSET 0.000000 -0.000004 16.018799
							CHANNELS 3 Xrotation Yrotation Zrotation
							End Site
							{
								OFFSET 0.006790 0.894205 7.757828
							}
						}
					}
				}
			}
		}
	}
	JOINT LeftUpLeg
	{
		OFFSET 7.060478 1.086100 -1.294701
		CHANNELS 3 Xrotation Yrotation Zrotation
		JOINT LeftUpLegRoll
		{
			OFFSET 0.000000 -0.000004 18.530899
			CHANNELS 3 Xrotation Yrotation Zrotation
			JOINT LeftLeg
			{
				OFFSET 0.000000 -0.000004 22.947502
				CHANNELS 3 Xrotation Yrotation Zrotation
				JOINT LeftLegRoll
				{
					OFFSET 0.000000 -0.000004 23.235504
					CHANNELS 3 Xrotation Yrotation Zrotation
					JOINT LeftFoot
					{
						OFFSET 0.000000 -0.000002 18.949600
						CHANNELS 3 Xrotation Yrotation Zrotation
						JOINT LeftToeBase
						{
							OFFSET 0.000000 -0.000004 16.018799
							CHANNELS 3 Xrotation Yrotation Zrotation
							End Site
							{
								OFFSET -0.030426 0.894207 7.757828
							}
						}
					}
				}
			}
		}
	}
}
MOTION
Frames: 10
Frame Time: 0.041667
62.473900 -21.721415 97.004601 -6.835420 -1.687675 2.137429 -0.052385 0.257972 -0.031939 3.898195 0.510604 -0.061613 5.543320 0.509831 -0.067726 10.874050 8.277862 0.811454 13.747596 -9.463610 2.447658 -6.304136 -66.815485 -8.077984 -49.290521 -119.129059 -42.029672 0.000004 -0.000002 0.000004 12.844080 -7.061760 -0.194160 -0.000001 0.000001 -3.007460 -5.000197 -7.999094 0.000111 -11.640113 65.437932 14.049279 -52.950683 116.222677 52.543272 0.000006 -0.000001 -0.000001 13.060800 11.391308 -0.574191 -0.000003 -0.000008 2.999990 -5.000203 7.998716 -0.000152 6.281990 -173.795188 5.898437 -179.999991 0.000005 -1.265000 172.495963 -1.342406 -0.569815 0.000003 -0.000000 0.145945 69.951642 6.937878 1.948210 25.456953 -7.355613 0.000002 3.248605 175.328483 -1.764468 -0.000020 -0.000005 -1.219171 -6.330393 2.043524 0.252800 -0.000000 0.000003 -0.080083 69.092035 -6.942256 -2.001924 25.456952 7.355623 -0.000005 
62.475101 -21.727615 97.005402 -6.832831 -1.687893 2.131670 -0.052718 0.258232 -0.032363 3.897535 0.510714 -0.062940 5.542649 0.509926 -0.069054 10.843360 8.297444 0.808863 13.723505 -9.479931 2.443166 -6.310659 -66.815929 -8.085388 -49.268900 -119.127638 -41.949516 0.000006 -0.000002 0.000004 12.818620 -7.016624 -0.201414 0.000001 0.000001 -3.007460 -5.000195 -7.999095 0.000111 -11.638325 65.445472 14.047587 -52.933485 116.225272 52.445119 0.000002 -0.000002 -0.000001 13.010943 11.324810 -0.559374 -0.000004 -0.000008 2.999990 -5.000199 7.998716 -0.000152 6.280407 -173.793180 5.899931 -179.999991 0.000004 -1.265000 172.497370 -1.343399 -0.569913 0.000004 -0.000000 0.145843 69.949941 6.937865 1.948213 25.456952 -7.355614 0.000003 3.248511 175.325506 -1.771889 -0.000020 -0.000005 -1.219170 -6.330842 2.050817 0.253133 -0.000001 0.000004 -0.079936 69.089815 -6.942247 -2.001961 25.456950 7.355624 -0.000006 
62.480900 -21.735718 97.008598 -6.830009 -1.688072 2.125922 -0.053168 0.258540 -0.032818 3.896635 0.510882 -0.064347 5.541750 0.510076 -0.070463 10.814064 8.316343 0.806392 13.698174 -9.495687 2.438635 -6.316655 -66.816804 -8.092216 -49.248898 -119.125712 -41.874452 0.000007 -0.000002 0.000004 12.792043 -6.974368 -0.208331 -0.000001 0.000001 -3.007460 -5.000198 -7.999096 0.000111 -11.635644 65.452671 14.044859 -52.915863 116.227649 52.347458 0.000003 -0.000002 -0.000001 12.961051 11.258866 -0.544784 -0.000005 -0.000008 2.999990 -5.000201 7.998713 -0.000153 6.278487 -173.792169 5.901284 -179.999991 0.000005 -1.265001 172.498654 -1.344405 -0.569003 0.000004 -0.000000 0.145734 69.948152 6.937885 1.948130 25.456950 -7.355613 0.000002 3.248117 175.321489 -1.779243 -0.000020 -0.000004 -1.219170 -6.331320 2.057992 0.253454 -0.000001 0.000003 -0.079786 69.087807 -6.942249 -2.001886 25.456953 7.355623 -0.000006 
62.484901 -21.732914 97.007896 -6.827029 -1.688222 2.120184 -0.053697 0.258882 -0.033293 3.895584 0.511089 -0.065810 5.540692 0.510266 -0.071929 10.785862 8.334767 0.803986 13.672009 -9.511038 2.434082 -6.322244 -66.817876 -8.098613 -49.230573 -119.123280 -41.803503 0.000003 -0.000002 0.000004 12.764828 -6.934140 -0.214993 0.000004 0.000001 -3.007460 -5.000195 -7.999094 0.000111 -11.632336 65.459515 14.041410 -52.896045 116.230326 52.248119 0.000002 -0.000003 -0.000001 12.911323 11.193372 -0.530447 -0.000005 -0.000008 2.999990 -5.000201 7.998715 -0.000152 6.276350 -173.790161 5.902719 -179.999991 0.000005 -1.265000 172.499897 -1.345398 -0.569105 0.000003 -0.000000 0.145623 69.946335 6.937872 1.948240 25.456950 -7.355616 0.000001 3.247515 175.317501 -1.786500 -0.000020 -0.000004 -1.219171 -6.331820 2.065066 0.253763 -0.000000 0.000003 -0.079634 69.085799 -6.942251 -2.001913 25.456953 7.355621 -0.000005 
62.473202 -21.732216 97.006409 -6.823954 -1.688352 2.114440 -0.054274 0.259243 -0.033781 3.894435 0.511320 -0.067306 5.539540 0.510478 -0.073428 10.758261 8.352911 0.801630 13.645327 -9.526182 2.429507 -6.327607 -66.819064 -8.104765 -49.212367 -119.120931 -41.733972 0.000004 -0.000002 0.000004 12.737151 -6.895053 -0.221497 0.000000 0.000002 -3.007461 -5.000198 -7.999094 0.000111 -11.628700 65.466284 14.037578 -52.874461 116.233537 52.147180 0.000005 -0.000003 -0.000001 12.861554 11.128138 -0.516264 -0.000003 -0.000008 2.999990 -5.000203 7.998714 -0.000153 6.274076 -173.789123 5.904033 -179.999991 0.000004 -1.265001 172.501086 -1.346390 -0.569207 0.000004 -0.000001 0.145508 69.944539 6.937891 1.948157 25.456950 -7.355615 0.000002 3.246785 175.314495 -1.793640 -0.000020 -0.000004 -1.219169 -6.332328 2.072111 0.254068 -0.000000 0.000003 -0.079481 69.083887 -6.942222 -2.001927 25.456948 7.355623 -0.000005 
62.465698 -21.733316 97.006592 -6.820855 -1.688481 2.108708 -0.054863 0.259610 -0.034270 3.893265 0.511556 -0.068811 5.538371 0.510696 -0.074935 10.730760 8.370997 0.799309 13.618543 -9.541259 2.424917 -6.332923 -66.820362 -8.110865 -49.192798 -119.119237 -41.663222 0.000006 -0.000002 0.000003 12.709292 -6.856257 -0.227950 0.000004 0.000001 -3.007460 -5.000195 -7.999094 0.000112 -11.624954 65.472978 14.033605 -52.854357 116.236064 52.048022 0.000003 -0.000002 -0.000001 12.811814 11.062874 -0.502190 -0.000006 -0.000008 2.999990 -5.000198 7.998715 -0.000153 6.271776 -173.787115 5.905452 -179.999991 0.000005 -1.265001 172.502274 -1.347382 -0.569309 0.000004 -0.000000 0.145394 69.942735 6.937876 1.948166 25.456953 -7.355613 0.000001 3.246030 175.310506 -1.800834 -0.000020 -0.000004 -1.219169 -6.332837 2.079126 0.254371 -0.000001 0.000003 -0.079327 69.081988 -6.942229 -2.001949 25.456952 7.355621 -0.000005 
62.470100 -21.736813 97.001099 -6.817805 -1.688621 2.102972 -0.055423 0.259966 -0.034755 3.892135 0.511780 -0.070298 5.537252 0.510903 -0.076425 10.702953 8.389231 0.796991 13.591965 -9.556446 2.420310 -6.338341 -66.821557 -8.117075 -49.174442 -119.116805 -41.593267 0.000004 -0.000002 0.000004 12.681730 -6.816887 -0.234405 0.000002 0.000001 -3.007460 -5.000195 -7.999094 0.000112 -11.621360 65.479739 14.029832 -52.834259 116.238591 51.948701 0.000002 -0.000003 -0.000001 12.762119 10.997576 -0.488232 -0.000005 -0.000008 2.999989 -5.000200 7.998714 -0.000152 6.269541 -173.786090 5.906766 -179.999991 0.000005 -1.265000 172.503490 -1.348375 -0.569410 0.000004 -0.000000 0.145281 69.940919 6.937861 1.948177 25.456952 -7.355615 0.000001 3.245336 175.307501 -1.807995 -0.000020 -0.000004 -1.219170 -6.333335 2.086181 0.254677 -0.000001 0.000003 -0.079175 69.079994 -6.942266 -2.001880 25.456948 7.355623 -0.000005 
62.474998 -21.739214 97.002701 -6.814874 -1.688780 2.097220 -0.055933 0.260299 -0.035224 3.891125 0.511976 -0.071746 5.536231 0.511081 -0.077875 10.674448 8.407807 0.794643 13.566005 -9.571912 2.415701 -6.344033 -66.822534 -8.123582 -49.154587 -119.114975 -41.519969 0.000002 -0.000002 0.000004 12.654746 -6.776055 -0.240974 0.000001 0.000001 -3.007460 -5.000196 -7.999094 0.000112 -11.618235 65.486665 14.026582 -52.814448 116.241296 51.849199 0.000002 -0.000003 -0.000001 12.712444 10.931857 -0.474302 -0.000004 -0.000008 2.999990 -5.000197 7.998713 -0.000153 6.267467 -173.784082 5.908210 -179.999991 0.000005 -1.265000 172.504747 -1.349381 -0.569511 0.000003 -0.000000 0.145171 69.939122 6.937882 1.948195 25.456950 -7.355613 0.000001 3.244790 175.303499 -1.815277 -0.000020 -0.000004 -1.219170 -6.333834 2.093285 0.254990 -0.000001 0.000004 -0.079023 69.077986 -6.942268 -2.001905 25.456947 7.355624 -0.000005 
62.475101 -21.744017 97.006905 -6.812123 -1.688978 2.091469 -0.056347 0.260593 -0.035669 3.890306 0.512127 -0.073129 5.535411 0.511215 -0.079260 10.644747 8.426948 0.792250 13.541069 -9.587813 2.411100 -6.350206 -66.823286 -8.130610 -49.134305 -119.112926 -41.443696 0.000005 -0.000002 0.000004 12.628617 -6.732898 -0.247745 0.000001 0.000001 -3.007460 -5.000197 -7.999093 0.000111 -11.615806 65.493953 14.024151 -52.794944 116.244137 51.749270 0.000001 -0.000003 -0.000001 12.662888 10.865609 -0.460387 -0.000003 -0.000008 2.999990 -5.000201 7.998716 -0.000153 6.265641 -173.783058 5.909570 -179.999991 0.000005 -1.265000 172.506072 -1.350374 -0.569611 0.000003 -0.000000 0.145065 69.937319 6.937902 1.948109 25.456953 -7.355613 0.000002 3.244483 175.300493 -1.822612 -0.000020 -0.000004 -1.219170 -6.334305 2.100490 0.255315 -0.000001 0.000004 -0.078874 69.075875 -6.942265 -2.001938 25.456950 7.355623 -0.000005 
62.473999 -21.746513 97.005409 -6.809635 -1.689216 2.085705 -0.056634 0.260833 -0.036082 3.889725 0.512216 -0.074423 5.534831 0.511288 -0.080554 10.613440 8.446843 0.789791 13.517381 -9.604345 2.406495 -6.356958 -66.823620 -8.138262 -49.112205 -119.111327 -41.361891 0.000004 -0.000002 0.000004 12.603629 -6.686567 -0.254801 0.000004 0.000001 -3.007460 -5.000194 -7.999093 0.000111 -11.614401 65.501774 14.022900 -52.779102 116.245995 51.652360 0.000004 -0.000002 -0.000002 12.613349 10.798746 -0.446447 -0.000006 -0.000008 2.999990 -5.000203 7.998715 -0.000152 6.264187 -173.781063 5.911079 -179.999991 0.000005 -1.265001 172.507492 -1.351367 -0.568710 0.000004 -0.000001 0.144965 69.935618 6.937887 1.948214 25.456950 -7.355614 0.000001 3.244514 175.296518 -1.830149 -0.000020 -0.000004 -1.219170 -6.334754 2.107833 0.255654 -0.000000 0.000004 -0.078728 69.073648 -6.942253 -2.001976 25.456948 7.355621 -0.000005 
